<svg xmlns="http://www.w3.org/2000/svg" width="40" height="39.5" viewBox="0 0 40 39.5"><defs><style>.cls-1{fill:#855b34;fill-rule:evenodd}</style></defs><path id="icon-base.svg" d="M1022.87,1327.76a7.111,7.111,0,0,1-1.72-.28,3.254,3.254,0,0,0-2.3,0,5.509,5.509,0,0,1-2.32.23,5.452,5.452,0,0,1-2.15-1.03,5.149,5.149,0,0,0-.97-0.57,4.913,4.913,0,0,0-1.14-.19,4.418,4.418,0,0,1-3.93-2.28,4.924,4.924,0,0,0-.72-0.88,4.812,4.812,0,0,0-1-.56,4.441,4.441,0,0,1-2.92-3.48,4.945,4.945,0,0,0-.39-1.08,4.457,4.457,0,0,0-.73-0.86,5.491,5.491,0,0,1-1.38-1.93,5.583,5.583,0,0,1-.18-2.34,5.66,5.66,0,0,0,.01-1.16,5.539,5.539,0,0,0-.39-1.05,4.453,4.453,0,0,1,0-4.6,5.539,5.539,0,0,0,.39-1.05,5.661,5.661,0,0,0-.01-1.16,5.526,5.526,0,0,1,.18-2.33,5.4,5.4,0,0,1,1.38-1.93,4.8,4.8,0,0,0,.73-0.87,4.945,4.945,0,0,0,.39-1.08,5.49,5.49,0,0,1,.98-2.14,5.654,5.654,0,0,1,1.94-1.34,4.812,4.812,0,0,0,1-.56,4.924,4.924,0,0,0,.72-0.88,4.418,4.418,0,0,1,3.93-2.28,4.913,4.913,0,0,0,1.14-.19,5.149,5.149,0,0,0,.97-0.57,5.452,5.452,0,0,1,2.15-1.03,5.675,5.675,0,0,1,2.32.23,3.254,3.254,0,0,0,2.3,0,5.509,5.509,0,0,1,2.32-.23,5.452,5.452,0,0,1,2.15,1.03,5.149,5.149,0,0,0,.97.57,4.913,4.913,0,0,0,1.14.19,4.418,4.418,0,0,1,3.93,2.28,4.924,4.924,0,0,0,.72.88,4.812,4.812,0,0,0,1,.56,5.654,5.654,0,0,1,1.94,1.34,5.49,5.49,0,0,1,.98,2.14,4.945,4.945,0,0,0,.39,1.08,4.8,4.8,0,0,0,.73.87,5.4,5.4,0,0,1,1.38,1.93,5.537,5.537,0,0,1,.18,2.33,5.661,5.661,0,0,0-.01,1.16,5.539,5.539,0,0,0,.39,1.05,4.453,4.453,0,0,1,0,4.6,5.539,5.539,0,0,0-.39,1.05,5.661,5.661,0,0,0,.01,1.16,5.583,5.583,0,0,1-.18,2.34,5.491,5.491,0,0,1-1.38,1.93,3.2,3.2,0,0,0-1.12,1.94,4.441,4.441,0,0,1-2.92,3.48,4.812,4.812,0,0,0-1,.56,4.924,4.924,0,0,0-.72.88,4.418,4.418,0,0,1-3.93,2.28,4.913,4.913,0,0,0-1.14.19,5.149,5.149,0,0,0-.97.57,5.452,5.452,0,0,1-2.15,1.03A4.047,4.047,0,0,1,1022.87,1327.76Z" class="cls-1" transform="translate(-1000 -1288.25)"/></svg>