<svg xmlns="http://www.w3.org/2000/svg" width="80" height="79.06" viewBox="0 0 80 79.06"><defs><style>.cls-1{fill:#855b34;fill-rule:evenodd}</style></defs><path id="icon-circle_frame.svg" d="M1125.73,4481.52a13.59,13.59,0,0,1-3.42-.56,6.563,6.563,0,0,0-4.62,0,10.957,10.957,0,0,1-4.63.45,11.086,11.086,0,0,1-4.3-2.04,10.073,10.073,0,0,0-1.94-1.14,10.343,10.343,0,0,0-2.28-.39,8.806,8.806,0,0,1-7.86-4.56,9.752,9.752,0,0,0-1.45-1.75,10.164,10.164,0,0,0-1.98-1.14,8.837,8.837,0,0,1-5.85-6.95,9.88,9.88,0,0,0-.77-2.17,10.091,10.091,0,0,0-1.47-1.72,11.109,11.109,0,0,1-2.76-3.86,10.96,10.96,0,0,1-.36-4.67,10.68,10.68,0,0,0,.01-2.33,9.646,9.646,0,0,0-.78-2.09,8.966,8.966,0,0,1,0-9.2,9.646,9.646,0,0,0,.78-2.09,10.68,10.68,0,0,0-.01-2.33,10.96,10.96,0,0,1,.36-4.67,11.109,11.109,0,0,1,2.76-3.86,10.091,10.091,0,0,0,1.47-1.72,10.4,10.4,0,0,0,.78-2.17,8.8,8.8,0,0,1,5.84-6.95,10.164,10.164,0,0,0,1.98-1.14,9.762,9.762,0,0,0,1.46-1.75,10.912,10.912,0,0,1,3.3-3.38,11.107,11.107,0,0,1,4.55-1.18,9.693,9.693,0,0,0,2.28-.39,10.512,10.512,0,0,0,1.94-1.13,8.8,8.8,0,0,1,8.93-1.6,6.562,6.562,0,0,0,4.62,0,10.8,10.8,0,0,1,4.63-.45,10.959,10.959,0,0,1,4.3,2.05,10.512,10.512,0,0,0,1.94,1.13,9.7,9.7,0,0,0,2.27.39,8.776,8.776,0,0,1,7.86,4.56,10.238,10.238,0,0,0,1.46,1.76,10.715,10.715,0,0,0,1.98,1.13,8.8,8.8,0,0,1,5.84,6.95,10.4,10.4,0,0,0,.78,2.17,10.091,10.091,0,0,0,1.47,1.72,8.784,8.784,0,0,1,3.12,8.54,10.591,10.591,0,0,0-.01,2.32,9.646,9.646,0,0,0,.78,2.09,8.966,8.966,0,0,1,0,9.2,9.646,9.646,0,0,0-.78,2.09,10.68,10.68,0,0,0,.01,2.33,8.777,8.777,0,0,1-3.12,8.53,9.751,9.751,0,0,0-1.47,1.73,10.086,10.086,0,0,0-.78,2.16,8.8,8.8,0,0,1-5.84,6.95,6.5,6.5,0,0,0-3.44,2.89,10.912,10.912,0,0,1-3.3,3.38,11.11,11.11,0,0,1-4.56,1.18,10.245,10.245,0,0,0-2.27.39,9.783,9.783,0,0,0-1.94,1.14,11.086,11.086,0,0,1-4.3,2.04A6.261,6.261,0,0,1,1125.73,4481.52Zm-5.73-5.89a14.005,14.005,0,0,1,3.51.57,7.441,7.441,0,0,0,2.59.38,7.334,7.334,0,0,0,2.38-1.27,13.879,13.879,0,0,1,3.02-1.7,14.433,14.433,0,0,1,3.45-.66,7.174,7.174,0,0,0,2.6-.54,7.344,7.344,0,0,0,1.78-2,13.764,13.764,0,0,1,2.28-2.64,14.01,14.01,0,0,1,3.01-1.8,7.272,7.272,0,0,0,2.26-1.4,7.193,7.193,0,0,0,.99-2.47,10.987,10.987,0,0,1,3.45-5.98,7.067,7.067,0,0,0,1.66-2.11,7.173,7.173,0,0,0,.08-2.64,14.91,14.91,0,0,1,.05-3.52,13.9,13.9,0,0,1,1.14-3.26,7.5,7.5,0,0,0,.84-2.59,7.389,7.389,0,0,0-.84-2.58,14.059,14.059,0,0,1-1.14-3.26,15,15,0,0,1-.05-3.53,7.184,7.184,0,0,0-.08-2.64,7.067,7.067,0,0,0-1.66-2.11,10.913,10.913,0,0,1-3.45-5.97,4.285,4.285,0,0,0-3.25-3.88,14.01,14.01,0,0,1-3.01-1.8,13.47,13.47,0,0,1-2.28-2.64,7.5,7.5,0,0,0-1.78-2,7.34,7.34,0,0,0-2.6-.54,14.433,14.433,0,0,1-3.45-.66,14.284,14.284,0,0,1-3.02-1.69,7.2,7.2,0,0,0-2.38-1.28,7.441,7.441,0,0,0-2.59.38,11.092,11.092,0,0,1-7.02,0,4.234,4.234,0,0,0-4.97.9,14.284,14.284,0,0,1-3.02,1.69,14.526,14.526,0,0,1-3.45.66,7.126,7.126,0,0,0-2.6.54,7.5,7.5,0,0,0-1.78,2,13.47,13.47,0,0,1-2.28,2.64,14.01,14.01,0,0,1-3.01,1.8,4.287,4.287,0,0,0-3.25,3.87,10.987,10.987,0,0,1-3.45,5.98,7.292,7.292,0,0,0-1.67,2.11,7.638,7.638,0,0,0-.08,2.64,14.456,14.456,0,0,1-.04,3.53,14.059,14.059,0,0,1-1.14,3.26,7.389,7.389,0,0,0-.84,2.58,7.5,7.5,0,0,0,.84,2.59,13.9,13.9,0,0,1,1.14,3.26,14.449,14.449,0,0,1,.04,3.53,7.592,7.592,0,0,0,.08,2.63,7.292,7.292,0,0,0,1.67,2.11,10.987,10.987,0,0,1,3.45,5.98,7.193,7.193,0,0,0,.99,2.47,7.272,7.272,0,0,0,2.26,1.4,10.995,10.995,0,0,1,5.29,4.44,7.5,7.5,0,0,0,1.78,2,7.126,7.126,0,0,0,2.6.54,14.526,14.526,0,0,1,3.45.66,13.879,13.879,0,0,1,3.02,1.7,7.334,7.334,0,0,0,2.38,1.27,7.441,7.441,0,0,0,2.59-.38A14.005,14.005,0,0,1,1120,4475.63Z" class="cls-1" transform="translate(-1080 -4402.47)"/></svg>