<svg xmlns="http://www.w3.org/2000/svg" width="80" height="79.06" viewBox="0 0 80 79.06" class="navbar-frame">
  <path class="frame-path" transform="translate(-1080 -4402.47)" d="M1125.73,4481.52a13.59,13.59,0,0,1-3.42-.56,6.563,6.563,0,0,0-4.62,0,10.957,10.957,0,0,1-4.63.45,11.086,11.086,0,0,1-4.3-2.04,10.073,10.073,0,0,0-1.94-1.14,10.343,10.343,0,0,0-2.28-.39,8.806,8.806,0,0,1-7.86-4.56,9.752,9.752,0,0,0-1.45-1.75,10.164,10.164,0,0,0-1.98-1.14,8.837,8.837,0,0,1-5.85-6.95,9.88,9.88,0,0,0-.77-2.17,10.091,10.091,0,0,0-1.47-1.72,11.109,11.109,0,0,1-2.76-3.86,10.96,10.96,0,0,1-.36-4.67,10.68,10.68,0,0,0,.01-2.33,9.646,9.646,0,0,0-.78-2.09,8.966,8.966,0,0,1,0-9.2,9.646,9.646,0,0,0,.78-2.09,10.68,10.68,0,0,0-.01-2.33,10.96,10.96,0,0,1,.36-4.67,11.109,11.109,0,0,1,2.76-3.86,10.091,10.091,0,0,0,1.47-1.72,10.4,10.4,0,0,0,.78-2.17,8.8,8.8,0,0,1,5.84-6.95,10.164,10.164,0,0,0,1.98-1.14,9.762,9.762,0,0,0,1.46-1.75,10.912,10.912,0,0,1,3.3-3.38,11.107,11.107,0,0,1,4.55-1.18,9.693,9.693,0,0,0,2.28-.39,10.512,10.512,0,0,0,1.94-1.13,8.8,8.8,0,0,1,8.93-1.6,6.562,6.562,0,0,0,4.62,0,10.8,10.8,0,0,1,4.63-.45,10.959,10.959,0,0,1,4.3,2.05,10.512,10.512,0,0,0,1.94,1.13,9.7,9.7,0,0,0,2.27.39,8.776,8.776,0,0,1,7.86,4.56,10.238,10.238,0,0,0,1.46,1.76,10.715,10.715,0,0,0,1.98,1.13,8.8,8.8,0,0,1,5.84,6.95,10.4,10.4,0,0,0,.78,2.17,10.091,10.091,0,0,0,1.47,1.72,8.784,8.784,0,0,1,3.12,8.54,10.591,10.591,0,0,0-.01,2.32,9.646,9.646,0,0,0,.78,2.09,8.966,8.966,0,0,1,0,9.2,9.646,9.646,0,0,0-.78,2.09,10.68,10.68,0,0,0,.01,2.33,8.777,8.777,0,0,1-3.12,8.53,9.751,9.751,0,0,0-1.47,1.73,10.086,10.086,0,0,0-.78,2.16,8.8,8.8,0,0,1-5.84,6.95,6.5,6.5,0,0,0-3.44,2.89,10.912,10.912,0,0,1-3.3,3.38,11.11,11.11,0,0,1-4.56,1.18,10.245,10.245,0,0,0-2.27.39,9.783,9.783,0,0,0-1.94,1.14,11.086,11.086,0,0,1-4.3,2.04A6.261,6.261,0,0,1,1125.73,4481.52Z"></path>
</svg>
